# xmcd
#
# Track frame offsets: 
#        150
#        12931
#        25846
#        38042
#        54385
#        68559
#        81975
#        96429
#        110219
#        127173
#        140452
#        152906
#
# Disc length: 2246 seconds
#
# Revision: 0
# Processed by: cddbd v1.5.2PL0 Copyright (c) Steve Scherf et al.
# Submitted via: ExactAudioCopy v1.3
#
DISCID=a408c40c
DTITLE=Chris Janson - Everybody
DYEAR=2017
DGENRE=
TTITLE0=Who's Your Farmer
TTITLE1=Everybody
TTITLE2=Name On It
TTITLE3=Eyes For Nobody
TTITLE4=Fix A Drink
TTITLE5=Out There
TTITLE6=Little Bit Of Both
TTITLE7=Our World
TTITLE8=Bein' A Dad
TTITLE9=When You Like Me
TTITLE10=Redneck Life
TTITLE11=Drunk Girl
EXTD=
EXTT0=
EXTT1=
EXTT2=
EXTT3=
EXTT4=
EXTT5=
EXTT6=
EXTT7=
EXTT8=
EXTT9=
EXTT10=
EXTT11=
PLAYORDER=
